<svg fill="#106394" xmlns="http://www.w3.org/2000/svg"  viewBox="0 0 50 50" width="50px" height="50px"><path d="M 25 0 C 24.449219 0 24 0.449219 24 1 L 24 4.0625 C 20.535156 4.449219 17.664063 6.8125 16.53125 10 L 33.46875 10 C 32.335938 6.8125 29.464844 4.449219 26 4.0625 L 26 1 C 26 0.449219 25.550781 0 25 0 Z M 16 11.96875 C 15.425781 11.96875 14.96875 12.425781 14.96875 13 C 14.96875 13.574219 15.425781 14.03125 16 14.03125 L 16 22.5 L 18 21.6875 L 18 14.03125 L 20 14.03125 L 20 20.90625 L 22 20.1875 L 22 14.03125 L 24 14.03125 L 24 19.40625 L 25 19 L 26 19.40625 L 26 14.03125 L 28 14.03125 L 28 20.1875 L 30 20.90625 L 30 14.03125 L 32 14.03125 L 32 21.6875 L 34 22.5 L 34 14.03125 C 34.574219 14.03125 35.03125 13.574219 35.03125 13 C 35.03125 12.425781 34.574219 11.96875 34 11.96875 Z M 25 21 C 24.878906 21 24.769531 21.019531 24.65625 21.0625 L 5.65625 28.375 C 5.269531 28.523438 5 28.898438 5 29.3125 L 5 33 C 5 33.554688 5.449219 34 6 34 L 44 34 C 44.554688 34 45 33.554688 45 33 L 45 29.3125 C 45 28.898438 44.730469 28.523438 44.34375 28.375 L 25.34375 21.0625 C 25.226563 21.019531 25.121094 21 25 21 Z M 7 36 L 7 49 C 7 49.554688 7.449219 50 8 50 L 19.3125 50 C 19.863281 50 20.3125 49.554688 20.3125 49 L 20.3125 43.59375 C 20.3125 41.253906 21.855469 39.273438 24 38.875 C 25.414063 38.605469 26.851563 38.949219 27.9375 39.84375 C 29 40.722656 29.59375 42.03125 29.59375 43.40625 L 29.59375 49 C 29.59375 49.554688 30.039063 50 30.59375 50 L 42 50 C 42.554688 50 43 49.554688 43 49 L 43 36 Z"/></svg>