<svg fill="#106394" xmlns="http://www.w3.org/2000/svg"  viewBox="0 0 50 50" width="50px" height="50px"><path d="M 27.5 2 C 27.039063 2 26.644531 2.304688 26.53125 2.75 L 26.125 4.4375 C 24.648438 4.882813 23.285156 5.65625 22.15625 6.71875 L 20.5 6.25 C 20.058594 6.125 19.574219 6.289063 19.34375 6.6875 L 17.84375 9.3125 C 17.613281 9.710938 17.703125 10.210938 18.03125 10.53125 L 19.25 11.71875 C 19.074219 12.464844 19 13.226563 19 14 C 19 14.773438 19.074219 15.535156 19.25 16.28125 L 18.03125 17.46875 C 17.703125 17.789063 17.613281 18.289063 17.84375 18.6875 L 19.34375 21.3125 C 19.574219 21.710938 20.058594 21.871094 20.5 21.75 L 22.15625 21.28125 C 23.285156 22.34375 24.648438 23.117188 26.125 23.5625 L 26.53125 25.25 C 26.640625 25.695313 27.039063 26 27.5 26 L 30.5 26 C 30.960938 26 31.355469 25.695313 31.46875 25.25 L 31.875 23.5625 C 33.351563 23.117188 34.714844 22.34375 35.84375 21.28125 L 37.5 21.75 C 37.9375 21.878906 38.425781 21.710938 38.65625 21.3125 L 40.15625 18.6875 C 40.386719 18.289063 40.296875 17.789063 39.96875 17.46875 L 38.75 16.28125 C 38.925781 15.53125 39 14.773438 39 14 C 39 13.226563 38.925781 12.46875 38.75 11.71875 L 39.96875 10.53125 C 40.296875 10.210938 40.386719 9.710938 40.15625 9.3125 L 38.65625 6.6875 C 38.425781 6.289063 37.9375 6.125 37.5 6.25 L 35.84375 6.71875 C 34.714844 5.65625 33.351563 4.882813 31.875 4.4375 L 31.46875 2.75 C 31.355469 2.304688 30.960938 2 30.5 2 Z M 29 11 C 30.667969 11 32 12.332031 32 14 C 32 15.667969 30.667969 17 29 17 C 27.332031 17 26 15.667969 26 14 C 26 12.332031 27.332031 11 29 11 Z M 11.5 20 C 11.039063 20 10.644531 20.304688 10.53125 20.75 L 10.125 22.4375 C 8.648438 22.882813 7.285156 23.65625 6.15625 24.71875 L 4.5 24.25 C 4.058594 24.125 3.574219 24.289063 3.34375 24.6875 L 1.84375 27.3125 C 1.613281 27.710938 1.703125 28.210938 2.03125 28.53125 L 3.25 29.71875 C 3.074219 30.464844 3 31.226563 3 32 C 3 32.773438 3.074219 33.535156 3.25 34.28125 L 2.03125 35.46875 C 1.703125 35.789063 1.613281 36.289063 1.84375 36.6875 L 3.34375 39.3125 C 3.574219 39.710938 4.058594 39.871094 4.5 39.75 L 6.15625 39.28125 C 7.285156 40.34375 8.648438 41.117188 10.125 41.5625 L 10.53125 43.25 C 10.640625 43.695313 11.039063 44 11.5 44 L 14.5 44 C 14.960938 44 15.355469 43.695313 15.46875 43.25 L 15.875 41.5625 C 17.351563 41.117188 18.714844 40.34375 19.84375 39.28125 L 21.5 39.75 C 21.9375 39.878906 22.425781 39.710938 22.65625 39.3125 L 24.15625 36.6875 C 24.386719 36.289063 24.296875 35.789063 23.96875 35.46875 L 22.75 34.28125 C 22.925781 33.53125 23 32.773438 23 32 C 23 31.226563 22.925781 30.46875 22.75 29.71875 L 23.96875 28.53125 C 24.296875 28.210938 24.386719 27.710938 24.15625 27.3125 L 22.65625 24.6875 C 22.425781 24.289063 21.9375 24.125 21.5 24.25 L 19.84375 24.71875 C 18.714844 23.65625 17.351563 22.882813 15.875 22.4375 L 15.46875 20.75 C 15.359375 20.304688 14.960938 20 14.5 20 Z M 34.5 25 C 34.039063 25 33.644531 25.304688 33.53125 25.75 L 33.125 27.4375 C 31.648438 27.882813 30.285156 28.65625 29.15625 29.71875 L 27.5 29.25 C 27.058594 29.125 26.574219 29.289063 26.34375 29.6875 L 24.84375 32.3125 C 24.613281 32.710938 24.703125 33.210938 25.03125 33.53125 L 26.25 34.71875 C 26.074219 35.464844 26 36.226563 26 37 C 26 37.773438 26.074219 38.535156 26.25 39.28125 L 25.03125 40.46875 C 24.703125 40.789063 24.613281 41.289063 24.84375 41.6875 L 26.34375 44.3125 C 26.574219 44.710938 27.058594 44.871094 27.5 44.75 L 29.15625 44.28125 C 30.285156 45.34375 31.648438 46.117188 33.125 46.5625 L 33.53125 48.25 C 33.640625 48.695313 34.039063 49 34.5 49 L 37.5 49 C 37.960938 49 38.355469 48.695313 38.46875 48.25 L 38.875 46.5625 C 40.351563 46.117188 41.714844 45.34375 42.84375 44.28125 L 44.5 44.75 C 44.9375 44.878906 45.425781 44.710938 45.65625 44.3125 L 47.15625 41.6875 C 47.386719 41.289063 47.296875 40.789063 46.96875 40.46875 L 45.75 39.28125 C 45.925781 38.53125 46 37.773438 46 37 C 46 36.226563 45.925781 35.46875 45.75 34.71875 L 46.96875 33.53125 C 47.296875 33.210938 47.386719 32.710938 47.15625 32.3125 L 45.65625 29.6875 C 45.425781 29.289063 44.9375 29.125 44.5 29.25 L 42.84375 29.71875 C 41.714844 28.65625 40.351563 27.882813 38.875 27.4375 L 38.46875 25.75 C 38.359375 25.304688 37.960938 25 37.5 25 Z M 13 29 C 14.667969 29 16 30.332031 16 32 C 16 33.667969 14.667969 35 13 35 C 11.332031 35 10 33.667969 10 32 C 10 30.332031 11.332031 29 13 29 Z M 36 33 C 38.210938 33 40 34.789063 40 37 C 40 39.210938 38.210938 41 36 41 C 33.789063 41 32 39.210938 32 37 C 32 34.789063 33.789063 33 36 33 Z"/></svg>