<svg xmlns="http://www.w3.org/2000/svg" width="785" height="214" viewBox="0 0 785 214" version="1.1"><path d="M 2.461 3.250 C 2.199 3.938, 2.101 50.850, 2.242 107.500 L 2.500 210.500 28.250 210.767 L 54 211.034 54 179.458 C 54 157.215, 54.317 148.078, 55.074 148.546 C 55.664 148.911, 55.552 148.255, 54.824 147.088 C 53.706 145.298, 53.459 150.029, 53.236 177.484 L 52.973 210 27.986 210 L 3 210 3 106.500 L 3 3 27.984 3 L 52.967 3 53.234 29.606 L 53.500 56.212 55.500 53.873 C 56.977 52.146, 57.042 51.889, 55.750 52.890 C 54.093 54.173, 54 52.851, 54 28.122 L 54 2 28.469 2 C 8.964 2, 2.825 2.295, 2.461 3.250 M 113.311 2.748 C 121.457 2.916, 134.507 2.916, 142.311 2.747 C 150.115 2.579, 143.450 2.441, 127.500 2.441 C 111.550 2.442, 105.165 2.580, 113.311 2.748 M 157.453 16.250 L 153.500 20.500 157.750 16.547 C 160.088 14.373, 162 12.460, 162 12.297 C 162 11.540, 161.129 12.298, 157.453 16.250 M 148 26.500 C 145.571 28.975, 143.809 31, 144.084 31 C 144.359 31, 146.571 28.975, 149 26.500 C 151.429 24.025, 153.191 22, 152.916 22 C 152.641 22, 150.429 24.025, 148 26.500 M 138 37.500 C 135.571 39.975, 133.809 42, 134.084 42 C 134.359 42, 136.571 39.975, 139 37.500 C 141.429 35.025, 143.191 33, 142.916 33 C 142.641 33, 140.429 35.025, 138 37.500 M 128 48.500 C 125.571 50.975, 123.809 53, 124.084 53 C 124.359 53, 126.571 50.975, 129 48.500 C 131.429 46.025, 133.191 44, 132.916 44 C 132.641 44, 130.429 46.025, 128 48.500 M 175.244 131.250 L 175.500 210.500 200.750 210.526 L 226.001 210.553 201 210.259 L 176 209.966 176 131.546 L 176 53.127 179.250 52.723 C 182.445 52.327, 182.436 52.317, 178.744 52.160 L 174.988 52 175.244 131.250 M 293.233 52.746 L 303.966 53.067 304.251 78.284 L 304.536 103.500 304.768 77.750 L 305 52 293.750 52.212 L 282.500 52.425 293.233 52.746 M 393.250 52.749 C 405.763 52.908, 426.238 52.908, 438.750 52.749 C 451.263 52.590, 441.025 52.461, 416 52.461 C 390.975 52.461, 380.738 52.590, 393.250 52.749 M 542.312 52.748 C 551.009 52.915, 564.959 52.915, 573.312 52.748 C 581.666 52.581, 574.550 52.444, 557.500 52.445 C 540.450 52.445, 533.616 52.582, 542.312 52.748 M 735.750 52.750 L 779 53.021 779 131.500 L 779 209.979 734.250 210.250 L 689.500 210.521 734.750 210.761 L 780 211 780 131.500 L 780 52 736.250 52.239 L 692.500 52.478 735.750 52.750 M 118 59.500 C 115.571 61.975, 113.809 64, 114.084 64 C 114.359 64, 116.571 61.975, 119 59.500 C 121.429 57.025, 123.191 55, 122.916 55 C 122.641 55, 120.429 57.025, 118 59.500 M 352.400 59.876 C 350.255 61.458, 346.925 64.484, 345 66.601 C 342.295 69.576, 342.749 69.319, 347 65.467 C 350.025 62.725, 353.625 59.723, 355 58.794 C 356.375 57.865, 357.230 57.081, 356.900 57.052 C 356.570 57.024, 354.545 58.294, 352.400 59.876 M 611.500 64 C 613.648 66.200, 615.631 68, 615.906 68 C 616.181 68, 614.648 66.200, 612.500 64 C 610.352 61.800, 608.369 60, 608.094 60 C 607.819 60, 609.352 61.800, 611.500 64 M 665 65.500 C 662.571 67.975, 660.809 70, 661.084 70 C 661.359 70, 663.571 67.975, 666 65.500 C 668.429 63.025, 670.191 61, 669.916 61 C 669.641 61, 667.429 63.025, 665 65.500 M 108 70.500 C 105.571 72.975, 103.809 75, 104.084 75 C 104.359 75, 106.571 72.975, 109 70.500 C 111.429 68.025, 113.191 66, 112.916 66 C 112.641 66, 110.429 68.025, 108 70.500 M 98 81.500 C 95.571 83.975, 93.809 86, 94.084 86 C 94.359 86, 96.571 83.975, 99 81.500 C 101.429 79.025, 103.191 77, 102.916 77 C 102.641 77, 100.429 79.025, 98 81.500 M 623 95 L 623 102 600.550 102 L 578.100 102 577.800 96.250 L 577.500 90.500 557.500 90.469 L 537.500 90.438 557.250 90.740 L 577 91.041 577 97.021 L 577 103 600.500 103 L 624 103 624 95.500 C 624 91.375, 623.775 88, 623.500 88 C 623.225 88, 623 91.150, 623 95 M 653.459 131 C 653.459 154.925, 653.589 164.713, 653.749 152.750 C 653.908 140.788, 653.908 121.213, 653.749 109.250 C 653.589 97.288, 653.459 107.075, 653.459 131 M 334.457 131 C 334.457 153.825, 334.588 163.163, 334.749 151.750 C 334.909 140.338, 334.909 121.663, 334.749 110.250 C 334.588 98.838, 334.457 108.175, 334.457 131 M 703.452 104.264 C 703.185 104.959, 703.087 117.897, 703.233 133.014 L 703.500 160.500 716.252 160.547 L 729.003 160.593 716.502 160.267 L 704 159.940 704 132 L 704 104.060 716.750 103.747 L 729.500 103.435 716.719 103.217 C 707.176 103.055, 703.814 103.320, 703.452 104.264 M 244.490 131.250 L 225.500 150.500 244.750 131.510 C 262.635 113.866, 264.452 112, 263.740 112 C 263.597 112, 254.935 120.662, 244.490 131.250 M 549.191 114.747 C 556.171 114.918, 567.871 114.919, 575.191 114.748 C 582.511 114.577, 576.800 114.436, 562.500 114.436 C 548.200 114.435, 542.211 114.575, 549.191 114.747 M 610.958 125.250 C 613.410 127.862, 615.548 130, 615.708 130 C 616.459 130, 615.665 129.102, 611.250 124.958 L 606.500 120.500 610.958 125.250 M 445.453 139.250 L 441.500 143.500 445.750 139.547 C 449.702 135.871, 450.460 135, 449.703 135 C 449.540 135, 447.627 136.912, 445.453 139.250 M 623.392 163 C 623.392 170.425, 623.549 173.463, 623.742 169.750 C 623.934 166.037, 623.934 159.963, 623.742 156.250 C 623.549 152.537, 623.392 155.575, 623.392 163 M 577.206 162.229 L 577 171.959 556.750 172.251 L 536.500 172.544 556.781 172.772 C 572.890 172.953, 577.168 172.727, 577.573 171.671 C 577.853 170.940, 577.932 166.327, 577.747 161.421 L 577.411 152.500 577.206 162.229 M 502.250 162.747 C 508.712 162.921, 519.288 162.921, 525.750 162.747 C 532.212 162.573, 526.925 162.430, 514 162.430 C 501.075 162.430, 495.788 162.573, 502.250 162.747 M 81.500 185 C 85.874 189.400, 89.678 193, 89.953 193 C 90.228 193, 86.874 189.400, 82.500 185 C 78.126 180.600, 74.322 177, 74.047 177 C 73.772 177, 77.126 180.600, 81.500 185 M 346.500 198 C 348.648 200.200, 350.631 202, 350.906 202 C 351.181 202, 349.648 200.200, 347.500 198 C 345.352 195.800, 343.369 194, 343.094 194 C 342.819 194, 344.352 195.800, 346.500 198 M 501.958 199.250 C 506.102 203.665, 507 204.459, 507 203.708 C 507 203.548, 504.863 201.410, 502.250 198.958 L 497.500 194.500 501.958 199.250 M 166.854 208.228 C 168.126 209.851, 167.026 209.974, 148.854 210.251 L 129.500 210.546 149.250 210.773 C 160.113 210.898, 169 210.605, 169 210.122 C 169 209.640, 168.213 208.627, 167.250 207.872 C 165.669 206.632, 165.631 206.667, 166.854 208.228 M 395.818 210.749 C 408.093 210.908, 427.893 210.908, 439.818 210.749 C 451.743 210.589, 441.700 210.459, 417.500 210.459 C 393.300 210.460, 383.543 210.590, 395.818 210.749 M 539.750 210.748 C 549.237 210.913, 564.763 210.913, 574.250 210.748 C 583.737 210.584, 575.975 210.450, 557 210.450 C 538.025 210.450, 530.263 210.584, 539.750 210.748" stroke="none" fill="#6e9cbf" fill-rule="evenodd"/><path d="M 3 106.500 L 3 210 28 210 L 53 210 53 177.254 L 53 144.509 64.359 161.504 C 81.430 187.047, 94.707 198.728, 115.372 206.385 C 123.350 209.340, 123.914 209.403, 145.878 209.783 L 168.257 210.169 166.267 207.335 C 165.172 205.776, 147.038 180.200, 125.968 150.500 C 104.899 120.800, 87.624 95.765, 87.580 94.866 C 87.536 93.967, 104.375 74.663, 125 51.968 C 145.625 29.274, 163.998 8.972, 165.828 6.853 L 169.156 3 133.828 3.060 L 98.500 3.120 76 29.647 L 53.500 56.175 53.234 29.587 L 52.967 3 27.984 3 L 3 3 3 106.500 M 176 131.358 L 176 210 201 210 L 226 210 226 179.716 L 226 149.433 245.250 130.352 C 255.838 119.858, 266.525 110.109, 269 108.688 C 275.602 104.897, 284.176 103, 294.710 103 L 304 103 304 78 L 304 53 293.250 53.008 C 287.337 53.012, 279.575 53.489, 276 54.068 C 259.342 56.767, 240.567 65.689, 227.831 76.957 C 222.232 81.911, 221.564 82.247, 220.582 80.603 C 210.995 64.556, 197.380 54.950, 181.934 53.335 L 176 52.715 176 131.358 M 363.909 54.896 C 353.042 58.373, 343.987 66.526, 338.806 77.500 L 335.500 84.500 335.185 127.500 C 334.967 157.096, 335.229 172.370, 336.023 176.500 C 338.507 189.419, 347.236 200.374, 359.777 206.315 L 366.500 209.500 413.750 209.796 L 461 210.091 461 185.066 L 461 160.040 439.957 159.770 L 418.915 159.500 431.468 150.142 C 445.590 139.614, 450.865 134.160, 455.184 125.622 C 460.158 115.790, 460.963 109.420, 460.983 79.750 L 461 53 415.250 53.054 C 374.144 53.102, 368.932 53.289, 363.909 54.896 M 519.230 54.521 C 511.642 56.606, 508.280 58.587, 502.512 64.373 C 493.377 73.536, 490.995 81.304, 491.008 101.886 C 491.017 117.997, 492.342 125.985, 496.206 133.235 C 500.078 140.499, 505.375 145.334, 513.877 149.362 L 520.500 152.500 549.285 152.819 L 578.071 153.138 577.785 162.819 L 577.500 172.500 557.250 172.771 L 537 173.041 537 168.021 L 537 163 514 163 L 491 163 491.017 168.250 C 491.039 174.787, 493.314 185.774, 495.537 190.071 C 498.377 195.564, 506.170 203.052, 512.484 206.354 L 518.500 209.500 554.797 209.807 C 585.282 210.065, 591.948 209.866, 596.428 208.564 C 607.945 205.216, 617.463 195.646, 621.125 183.733 C 622.965 177.748, 623.156 175.093, 622.782 160.733 C 622.421 146.882, 622.026 143.651, 620.095 138.715 C 616.932 130.635, 608.838 122.121, 600.782 118.401 L 594.500 115.500 565.750 115.181 L 537 114.863 537 102.411 L 537 89.959 557.250 90.229 L 577.500 90.500 577.800 96.250 L 578.100 102 600.550 102 L 623 102 622.984 94.750 C 622.945 76.320, 615.189 63.199, 600.175 56.160 L 594.500 53.500 559.500 53.286 C 531.524 53.116, 523.442 53.363, 519.230 54.521 M 685 54.423 C 673.239 57.674, 663.018 66.089, 657.749 76.858 L 654.500 83.500 654.500 131.521 L 654.500 179.542 657.920 186.488 C 662.262 195.309, 668.689 201.737, 677.510 206.080 L 684.454 209.500 731.727 209.787 L 779 210.074 779 131.537 L 779 53 734.250 53.089 C 701.888 53.154, 688.254 53.523, 685 54.423 M 385 116 C 385 123.150, 385.269 129, 385.599 129 C 386.172 129, 418.488 105.712, 420.450 103.885 C 421.003 103.369, 413.802 103, 403.200 103 L 385 103 385 116 M 703.452 104.264 C 703.185 104.959, 703.087 117.897, 703.233 133.014 L 703.500 160.500 716.250 160.780 L 729 161.060 729 132.030 L 729 103 716.469 103 C 707.291 103, 703.807 103.338, 703.452 104.264" stroke="none" fill="#0c6494" fill-rule="evenodd"/></svg>